# xmcd CD database file
#
# Track frame offsets:
#	150
#	17613
#	37592
#	49250
#	62188
#	72802
#	88050
#	107876
#	125128
#	146820
#	164968
#	183047
#
# Disc length: 2719 seconds
#
# Revision: 0
# Processed by: cddbd v1.5.1PL2 Copyright (c) Steve Scherf et al.
# Submitted via: CDex 1.51
#
DISCID=ac0a9d0c
DTITLE=Simon Stokes - Honky
DYEAR=2002
DGENRE=Country
TTITLE0=Amazons And Coyotes
TTITLE1=Leughter In The Sky
TTITLE2=No Confidence
TTITLE3=Pissin' In The Wind
TTITLE4=Ride On, Angel
TTITLE5=From This Outlaw To You
TTITLE6=Johnny Gillette
TTITLE7=Handsome Stuff
TTITLE8=Sleeping With The Enemy
TTITLE9=Jungle Music
TTITLE10=Mystery
TTITLE11=There's Someone Waiting To See You
EXTD=YEAR: 2002
EXTT0=
EXTT1=
EXTT2=
EXTT3=
EXTT4=
EXTT5=
EXTT6=
EXTT7=
EXTT8=
EXTT9=
EXTT10=
EXTT11=
PLAYORDER=
